# xmcd
#
# Track frame offsets: 
#        150
#        11288
#        22019
#        36532
#        52121
#        80365
#        100682
#        117036
#        132739
#        148063
#        169689
#        203614
#        219615
#        247117
#        260122
#        280264
#        298578
#        318017
#
# Disc length: 4541 seconds
#
# Revision: 1
# Processed by: cddbd v1.5.2PL0 Copyright (c) Steve Scherf et al.
# Submitted via: ExactAudioCopyFreeDBPlugin 1.0
#
DISCID=1011bb12
DTITLE=Various Artist - Philadelphia International Records:  The 40th
DTITLE=Anniversary Box Set
DYEAR=2012
DGENRE=Soul
TTITLE0=The Intruders - Win Place or Show (She's A Winner)
TTITLE1=The O'Jays - 992 Arguments
TTITLE2=The Three Degrees - Dirty Ol' Man
TTITLE3=Harold Melvin and The Blue Notes - Satisfaction Guaranteed (Or T
TTITLE3=ake Your Love Back)
TTITLE4=The O'Jays - Love Train
TTITLE5=M.F.S.B. - Get Down with the Philly Sound
TTITLE6=People's Choice - Jam Jam Jam (All Night Long)
TTITLE7=The Intruders - A Nice Girl Like You
TTITLE8=Harold Melvin and The Blue Notes - If You Don't Know Me By Now
TTITLE9=Billy Paul - Me and Mrs. Jones
TTITLE10=Harold Melvin and The Blue Notes - Wake Up Everybody
TTITLE11=The O'Jays - For the Love of Money
TTITLE12=Harold Melvin and The Blue Notes - Don't Leave Me This Way
TTITLE13=The O'Jays - Livin' for the Weekend
TTITLE14=Lou Rawls - You'll Never Find Another Love Like Mine
TTITLE15=Jean Carn - Free Love
TTITLE16=Billy Paul - People Power
TTITLE17=Dee Dee Sharp - Nobody Could Take Your Place
EXTD=
EXTT0=
EXTT1=
EXTT2=
EXTT3=
EXTT4=
EXTT5=
EXTT6=
EXTT7=
EXTT8=
EXTT9=
EXTT10=
EXTT11=
EXTT12=
EXTT13=
EXTT14=
EXTT15=
EXTT16=
EXTT17=
PLAYORDER=
